<svg width="18" height="21" viewBox="0 0 18 21" fill="none" xmlns="http://www.w3.org/2000/svg">
<path d="M17.75 9.333C17.75 4.323 13.825 0.25 9 0.25C4.175 0.25 0.25 4.324 0.25 9.333C0.25 13.938 3.57 17.745 7.855 18.33L6.155 20.16C6.018 20.305 5.982 20.517 6.062 20.7C6.142 20.882 6.322 21 6.522 21H11.479C11.677 21 11.857 20.882 11.936 20.7C12.016 20.517 11.98 20.305 11.844 20.16L10.144 18.33C14.429 17.745 17.749 13.938 17.749 9.333H17.75ZM9 16.917C5.002 16.917 1.75 13.515 1.75 9.333C1.75 5.151 5.002 1.75 9 1.75C12.998 1.75 16.25 5.15 16.25 9.333C16.25 13.516 12.998 16.917 9 16.917Z" fill="black"/>
</svg>
