<svg width="24" height="24" viewBox="0 0 24 24" fill="none" xmlns="http://www.w3.org/2000/svg">
<path d="M21.0416 23.6666H2.95825C1.51159 23.6666 0.333252 22.4883 0.333252 21.0416V2.95831C0.333252 1.51165 1.51159 0.333313 2.95825 0.333313H21.0416C22.4883 0.333313 23.6666 1.51165 23.6666 2.95831V21.0416C23.6666 22.4883 22.4883 23.6666 21.0416 23.6666ZM2.95825 2.08331C2.47525 2.08331 2.08325 2.47648 2.08325 2.95831V21.0416C2.08325 21.5235 2.47525 21.9166 2.95825 21.9166H21.0416C21.5246 21.9166 21.9166 21.5235 21.9166 21.0416V2.95831C21.9166 2.47648 21.5246 2.08331 21.0416 2.08331H2.95825Z" fill="black"/>
</svg>
