<svg width="14" height="18" viewBox="0 0 14 18" fill="none" xmlns="http://www.w3.org/2000/svg">
<path d="M13.8625 10.675C13.55 9.22085 11.9108 7.75335 10.5208 7.23751L10.0675 3.11418L11.3133 1.24585C11.4441 1.04918 11.4566 0.797514 11.3441 0.590014C11.2325 0.381681 11.0175 0.254181 10.7816 0.254181H3.16497C2.92831 0.254181 2.71331 0.382514 2.60164 0.590014C2.48997 0.798347 2.50164 1.05085 2.63331 1.24668L3.88164 3.11918L3.47831 7.23835C2.08831 7.75501 0.450807 9.22168 0.14164 10.6683C0.108307 10.8017 0.128307 11.005 0.25164 11.1633C0.337473 11.2733 0.504973 11.405 0.818307 11.405H4.19997L6.61997 16.9983C6.68497 17.1517 6.83664 17.25 7.00164 17.25C7.16664 17.25 7.31831 17.1517 7.38497 16.9983L9.80414 11.4042H13.185C13.4983 11.4042 13.665 11.2742 13.7516 11.1658C13.8733 11.0092 13.895 10.8042 13.8641 10.6742L13.8625 10.675Z" fill="#536471"/>
</svg>
